<svg xmlns="http://www.w3.org/2000/svg" viewBox="0 0 1626 360" role="img" aria-label="FC26 logo">
  <g transform="translate(-145 -682)">
    <path d="m583.3,919.99c-47.12-19.11-101.85-19.31-150.93-8.09l-22.04,6.91v46.32c33.08-10.25,64.83-25.18,98.68-32.71,6.32-.93,33.98-1.04,34.76,7.47-.83,4.91-6.5,6.96-10.52,8.75-30.89,13.78-68.39,23.81-100.64,35.66-7.47,2.74-15.14,5.37-22.29,8.89v44.1l170.6-61.47c37.21-16.17,44.08-38.93,2.38-55.83Z" fill="#FFFFFF" stroke-width="0"/><path d="m146.14,955.28c-3.93,18.77,19.58,28.63,33.64,33.27,36.73,12.12,76.68,16.05,115.07,10.33,3.51-.52,8.41-1.27,11.24-3.01v-38.75c-11.41,2.37-22.27,7.91-33.39,11.6-11.78,3.9-22.17,6.48-34.81,6.26-11.62-.2-35.13-5.65-13.33-16.08,22.74-10.89,52.24-17.52,76.13-27.21,1.84-.74,3.94-1.2,5.39-2.63v-44.1l-118.29,41.61c-11.51,5.59-38.77,14.88-41.66,28.71Z" fill="#FFFFFF" stroke-width="0"/><path d="m446.3,806.81v53.52l76.61,27.62v-131.72l-.42-54.78c-6.24-1.79-12.32-3.47-18.1-5.1-19.13-5.39-38.5-10.26-58.1-13.62v84.72h-50.23v-11.23l-.42-54.78c-6.24-1.79-12.32-3.47-18.1-5.1-19.13-5.39-38.5-10.26-58.1-13.62v334.51l76.61,24.5v-234.93s23.01-17.24,50.23,0Z" fill="#FFFFFF" stroke-width="0"/><circle cx="1755.68" cy="919.34" r="14.4" fill="#FFFFFF" stroke-width="0"/><path d="m1117.39,808.04l-55.45,54.49,59.46,59.44c.66.74.39,1.19,0,1.95-1.47,2.85-8.77,7.62-10.9,10.79l-58.17-58.89-58.17,58.89-10.25-10.49,58.98-61.54-59.61-60.53,10.88-10.78,58.17,58.89,57.18-58.04c.85-1.05,1.67.12,1.97.12" fill="#FFFFFF" stroke-width="0"/><polyline points="1129.73 792.33 1129.98 808.04 1180.75 808.04 1180.75 933.74 1197.51 933.74 1197.51 809.51 1198.99 808.04 1254.69 808.04 1254.69 792.33 1130.04 792.33" fill="#FFFFFF" stroke-width="0"/><path d="m1451.1,849.29h-15.28c-2.22-2.52-1.73-6.46-2.98-9.79-18.95-50.26-108.17-42.57-112.89,16.14-3.43,42.72,26.44,68.09,68.28,63.1,28.6-3.41,38.28-31.98,41.19-56.68h31.55v71.69h-16.76v-57.94l-5.18,16.94c-11.9,37.8-47.56,49.68-84.17,40.15-71.37-18.58-68.87-128.14,5.35-141.25,42.43-7.49,86.15,11.31,90.9,57.65Z" fill="#FFFFFF" stroke-width="0"/><polygon points="1706.44 910.17 1706.44 792.33 1723.2 792.33 1723.2 933.74 1703.98 933.74 1604.9 813.93 1604.9 933.74 1588.14 933.74 1588.14 792.33 1609.33 792.33 1706.44 910.17" fill="#FFFFFF" stroke-width="0"/><path d="m842.83,910.17v-117.84h15.77v141.41h-19.22l-99.08-119.81v119.81h-16.76v-141.41h21.2c29.4,35.25,57.85,71.31,87.27,106.53,2.4,2.87,5.6,7.28,8.05,9.66.87.84.81,2.15,2.77,1.66Z" fill="#FFFFFF" stroke-width="0"/><path d="m871.42,854.69c16.89-17.53,33.27-35.63,50.25-53.06,1.9-1.95,12.88-13.39,14.19-13.16l11.42,10.24-47.25,49.1,59.1,24.11c.71.99-4.16,13.32-5.41,14.72-2.37,2.65-58.77-24.21-66.52-25.58v55.98h88.73v16.69h-104.5v-79.05Z" fill="#FFFFFF" stroke-width="0"/><path d="m1472.79,854.69c16.59-17.17,32.6-34.98,49.27-52.07,2-2.05,13.86-14.37,15.17-14.14l11,10.72-46.83,48.62,59.1,24.11c.71.99-4.16,13.32-5.41,14.72-2.37,2.65-58.8-24.18-66.52-25.58v55.98h88.73v16.69h-104.5v-79.05Z" fill="#FFFFFF" stroke-width="0"/><path d="m842.62,991.82v-23.7c1.93-2.2,5.42-.91,8.09-1.21v40.18c-2.96-.17-5.68.81-8.15-1.14-4.24-3.35-10.95-18.28-15.07-23.56-.53-.67.02-1.45-1.85-1.01v25.71h-7.28v-40.18c2.73.23,6-.87,8.15,1.14l16.11,23.77Z" fill="#FFFFFF" stroke-width="0"/><path d="m1173.21,966.29c28.01-2.9,28.84,41.23,1.39,41.66-26.17.41-25.84-39.13-1.39-41.66Zm-.85,7.24c-13.01,2.33-13.12,29.81,4.61,27.07,13.95-2.15,12.88-30.21-4.61-27.07Z" fill="#FFFFFF" stroke-width="0"/><path d="m900.32,1002.79c-9.8-9-6.51-28.89,5.64-34.41,17.33-7.87,32.9,7.3,27.64,25.05-4.14,13.97-22.59,19.18-33.28,9.37Zm11.64-29.26c-12.68,2.27-13.08,30.31,5.28,26.93,13.16-2.42,12.2-30.06-5.28-26.93Z" fill="#FFFFFF" stroke-width="0"/><path d="m788.25,966.3c27.51-2.88,28.75,41.13,1.39,41.66-26.35.51-26.07-39.08-1.39-41.66Zm-1.68,7.22c-11.35,2.57-11.79,25.17.69,27.09,19.45,3,18.55-31.45-.69-27.09Z" fill="#FFFFFF" stroke-width="0"/><path d="m760.02,973.23l-1.72-.04c-5.19-3.54-11.18-6.24-17.35-3.24-13.72,6.69-9.72,34.41,8.97,29.82,3.51-.86,8.11-5.64,9.66-5.37.8.14,4.29,2.73,4.52,3.59.75,2.85-6.61,6.99-8.83,7.88-10.77,4.36-24.1,1.24-28.89-9.85-10.33-23.94,15.87-45.57,36.63-29.11l-3,6.32Z" fill="#FFFFFF" stroke-width="0"/><path d="m1129.54,961.52c5.19-.61,13.87.59,17.58,4.57,2.46,2.64-1.31,7.28-3.23,7.26-2.72-.02-7-6.2-14.82-4.29-17.42,4.27-13.5,36.83,7.15,30.41,6.01-1.87,7.93-9.18,12.82-1.47-1.27,5.93-11.66,9.73-17.29,9.93-28.57,1.03-30.19-43.13-2.21-46.43Z" fill="#FFFFFF" stroke-width="0"/><path d="m1013.26,966.91v6.43h-25.07v9.65s10.97.75,10.97.75c.37.64.38,1.34.43,2.06.08,1.36.09,3.02-1.4,3.51l-10,.11c.51,3.57-1.26,8.47,1.22,11.25h23.86v6.43h-31.95l-1.21-1.21v-37.77l1.21-1.21h31.95Z" fill="#FFFFFF" stroke-width="0"/><path d="m1358.59,966.91v6.43h-25.07v9.65s10.97.75,10.97.75c.37.64.38,1.34.43,2.06.08,1.36.09,3.02-1.4,3.51l-10,.11c.51,3.57-1.26,8.47,1.22,11.25h23.86v6.43h-31.95l-1.21-1.21v-37.77l1.21-1.21h31.95Z" fill="#FFFFFF" stroke-width="0"/><polygon points="1316.54 966.91 1316.54 973.34 1292.27 973.34 1292.27 982.99 1302.79 982.98 1302.8 988.95 1292.27 989.41 1292.27 1000.66 1317.35 1000.66 1317.35 1007.09 1284.19 1007.09 1284.19 966.91 1316.54 966.91" fill="#FFFFFF" stroke-width="0"/><path d="m887,970.22c-1.73,10.5-7.09,2.19-13.04,2.51-3.59.2-7,2.35-5.07,6.23,2.12,4.25,16.94,3.51,18.83,12.63,3.68,17.84-23.11,21.56-30.34,7.84.8-1.57,4.52-4.45,6.15-3.49,2.1,6.28,15.9,7.84,16.38.29.45-7.05-14.34-6.42-18.21-13.32-8.32-14.84,15.92-21.25,25.31-12.69Z" fill="#FFFFFF" stroke-width="0"/><path d="m1235.66,966.91v6.43h-24.26v9.64h16.98v6.43h-16.98v16.47c-1.92,2.2-5.42.91-8.09,1.21v-40.18h32.35Z" fill="#FFFFFF" stroke-width="0"/><path d="m1276.1,966.91v6.43h-24.26v9.64h16.98v6.43h-16.98v16.47c-1.92,2.2-5.42.91-8.09,1.21v-40.18h32.35Z" fill="#FFFFFF" stroke-width="0"/><path d="m950.99,966.91v33.75h21.43c1.81,1.44,1.89,4.87,0,6.43h-29.52v-40.18h8.09Z" fill="#FFFFFF" stroke-width="0"/><path d="m1076.02,970.27h-12.25l10.63,20.32,5.69-2.44,2.53,6.8-2.98,2.13c-1.72,2.63,7.35,13.59,6.18,14.63l-8.85-.13-2.59-5.56c-21.71,20.66-42.99-18.44-13.88-24.39-2.96-6.77-7.27-11.43-5.72-19.5h20.02c2.24,1.94.92,5.45,1.23,8.13Zm-15.73,18.87c-9.93,1.66-7.49,15.85,2.14,15.23,3.17-.2,7.42-3.36,6.91-6.69-.14-.93-3.59-7.46-4.29-7.97-1.55-1.12-2.99-.87-4.77-.57Z" fill="#FFFFFF" stroke-width="0"/>
  </g>
</svg>